<?xml version="1.0" encoding="UTF-8"?>
<svg width="355px" height="303px" viewBox="0 0 355 303" version="1.1" xmlns="http://www.w3.org/2000/svg" xmlns:xlink="http://www.w3.org/1999/xlink">
    <!-- Generator: Sketch 50.2 (55047) - http://www.bohemiancoding.com/sketch -->
    <title>buzzard</title>
    <desc>Created with Sketch.</desc>
    <defs>
        <linearGradient x1="47.3047732%" y1="54.8647879%" x2="26.5413786%" y2="-51.4602904%" id="linearGradient-1">
            <stop stop-color="#FFFFFF" offset="0%"></stop>
            <stop stop-color="#282828" offset="100%"></stop>
        </linearGradient>
        <polyline id="path-2" points="199.004939 71.5001672 193.074851 60.3904155 215.394548 58.3897068 163.481151 42.0311357 123.235016 46.652973 96.5 65.3316151 100.946121 98.9813785"></polyline>
        <linearGradient x1="91.3542652%" y1="14.9559234%" x2="50%" y2="100%" id="linearGradient-3">
            <stop stop-color="#FFFFFF" offset="0%"></stop>
            <stop stop-color="#000000" offset="100%"></stop>
        </linearGradient>
    </defs>
    <g id="Page-1" stroke="none" stroke-width="1" fill="none" fill-rule="evenodd">
        <g id="buzzard" transform="translate(1.000000, 1.000000)">
            <polygon id="Line" stroke="#000000" stroke-width="2" fill="#FFFFFF" stroke-linecap="square" points="18.0972374 84.3562184 26.5817162 48.9760501 77.5726907 18 145.40253 7.58354088 221.734341 25.2061523 282.904821 71.551885 327.493959 146.794941 345.720307 252.695158 292.599169 224.913879 277.444861 231.281672 264.322298 222.047724 256.571211 228.266373 237.13388 219.787871 229.927964 228.266373 216.479083 219.787871 205.687231 228.266373 192.171883 222.047724 180.327918 224.913879 160.221062 222.047724 147.328227 214.658621 132.460858 216.926579 122.831355 210.266984 105.81437 214.658621 95.7309506 207.43163 79.4305039 214.658621 49.47205 224.913879 7.69394851 293.490855 27.5817162 193.478814 29.8665091 123.714241"></polygon>
            <polyline id="Line-5" stroke="#B0322E" stroke-linecap="square" points="79.5 214.5 64.0052161 159.609814 43.5 124.5 44.3458382 124.5 93.2031709 161.590832 123.179898 210.701446 93.2031709 161.590832 44.125023 123.5 127.947517 167.052878 179.877244 225.494243 127.947517 167.052878 44.3776828 123.37058 170.187381 175.74572 216.026788 220.15911 170.187381 175.74572 44.3341159 123.5 230.921905 188.604409 292.874761 225.494243 230.921905 188.604409 44.6309206 123.087086"></polyline>
            <g id="Line-4" stroke-linecap="square">
                <use fill="url(#linearGradient-1)" fill-rule="evenodd" style="mix-blend-mode: darken;" xlink:href="#path-2"></use>
                <use stroke="#000000" stroke-width="1" xlink:href="#path-2"></use>
            </g>
            <polygon id="Line-2" stroke="#000000" fill="url(#linearGradient-3)" stroke-linecap="square" points="28.5 72.5 38.5 88.5 50.8564937 97.5191206 66.647906 102.828316 138.58386 122.147304 76.4427642 111.149569 53.0482594 113.250551 43.0150954 122.147304 28.5 122.147304 22.0508984 134.518135 21.0508984 154.046249 15.2897072 140.340255 11.2734001 124.762657 10.2734001 110.149569 12.2734001 95.5191206 18.5944163 82.4671791"></polygon>
            <g id="Eye-contour" transform="translate(93.000000, 39.000000)" fill="#508BD3" stroke="#000000">
                <circle id="Oval" cx="8" cy="60" r="3"></circle>
                <circle id="Oval" cx="3" cy="26" r="3"></circle>
                <circle id="Oval" cx="30" cy="8" r="3"></circle>
                <circle id="Oval" cx="123" cy="19" r="3"></circle>
                <circle id="Oval" cx="100" cy="22" r="3"></circle>
                <circle id="Oval" cx="106" cy="34" r="3"></circle>
                <circle id="Oval" cx="70" cy="3" r="3"></circle>
            </g>
            <g id="Head" fill="#508BD3" stroke="#000000" stroke-width="2">
                <circle id="Oval" cx="26.5" cy="48.5" r="7.5"></circle>
                <circle id="Oval" cx="27.5" cy="193.5" r="7.5"></circle>
                <circle id="Oval" cx="7.5" cy="293.5" r="7.5"></circle>
                <circle id="Oval" cx="49.5" cy="224.5" r="7.5"></circle>
                <circle id="Oval" cx="77.5" cy="18.5" r="7.5"></circle>
                <circle id="Oval" cx="145.5" cy="7.5" r="7.5"></circle>
                <circle id="Oval" cx="221.5" cy="25.5" r="7.5"></circle>
                <circle id="Oval" cx="282.5" cy="71.5" r="7.5"></circle>
                <circle id="Oval" cx="327.5" cy="147.5" r="7.5"></circle>
                <circle id="Oval" cx="345.5" cy="251.5" r="7.5"></circle>
            </g>
            <circle id="Right-eye" stroke="#000000" stroke-width="2" fill="#2F4D72" cx="163" cy="73" r="18"></circle>
            <g id="Beak" transform="translate(8.000000, 70.000000)" fill="#508BD3" stroke="#000000">
                <circle id="Oval" cx="21" cy="3" r="3"></circle>
                <circle id="Oval" cx="11" cy="12" r="3"></circle>
                <circle id="Oval" cx="5" cy="25" r="3"></circle>
                <circle id="Oval" cx="3" cy="40" r="3"></circle>
                <circle id="Oval" cx="3" cy="54" r="3"></circle>
                <circle id="Oval" cx="7" cy="70" r="3"></circle>
                <circle id="Oval" cx="13" cy="84" r="3"></circle>
                <circle id="Oval" cx="14" cy="64" r="3"></circle>
                <circle id="Oval" cx="21" cy="53" r="3"></circle>
                <circle id="Oval" cx="35" cy="53" r="3"></circle>
                <circle id="Oval" cx="45" cy="44" r="3"></circle>
                <circle id="Oval" cx="68" cy="41" r="3"></circle>
                <circle id="Oval" cx="131" cy="53" r="3"></circle>
                <circle id="Oval" cx="43" cy="28" r="3"></circle>
                <circle id="Oval" cx="31" cy="19" r="3"></circle>
                <circle id="Oval" cx="59" cy="33" r="3"></circle>
            </g>
            <g id="Bottom" transform="translate(61.000000, 156.000000)" fill="#508BD3" stroke="#000000">
                <circle id="Oval" cx="18" cy="58" r="3"></circle>
                <circle id="Oval" cx="35" cy="52" r="3"></circle>
                <circle id="Oval" cx="45" cy="58" r="3"></circle>
                <circle id="Oval" cx="62" cy="55" r="3"></circle>
                <circle id="Oval" cx="71" cy="61" r="3"></circle>
                <circle id="Oval" cx="86" cy="59" r="3"></circle>
                <circle id="Oval" cx="99" cy="66" r="3"></circle>
                <circle id="Oval" cx="119" cy="69" r="3"></circle>
                <circle id="Oval" cx="131" cy="66" r="3"></circle>
                <circle id="Oval" cx="144" cy="72" r="3"></circle>
                <circle id="Oval" cx="155" cy="64" r="3"></circle>
                <circle id="Oval" cx="169" cy="73" r="3"></circle>
                <circle id="Oval" cx="176" cy="64" r="3"></circle>
                <circle id="Oval" cx="195" cy="72" r="3"></circle>
                <circle id="Oval" cx="203" cy="66" r="3"></circle>
                <circle id="Oval" cx="216" cy="75" r="3"></circle>
                <circle id="Oval" cx="231" cy="69" r="3"></circle>
                <circle id="Oval" cx="170" cy="33" r="3"></circle>
                <circle id="Oval" cx="109" cy="20" r="3"></circle>
                <circle id="Oval" cx="67" cy="11" r="3"></circle>
                <circle id="Oval" cx="32" cy="5" r="3"></circle>
                <circle id="Oval" cx="3" cy="3" r="3"></circle>
            </g>
        </g>
    </g>
</svg>
